<?xml version="1.0" encoding="UTF-8" standalone="no" ?>
<!DOCTYPE svg PUBLIC "-//W3C//DTD SVG 1.1//EN" "http://www.w3.org/Graphics/SVG/1.1/DTD/svg11.dtd">
<svg xmlns="http://www.w3.org/2000/svg" xmlns:xlink="http://www.w3.org/1999/xlink" version="1.1" width="1080" height="1080" viewBox="0 0 1080 1080" xml:space="preserve">
<desc>Created with Fabric.js 4.2.0</desc>
<defs>
</defs>
<g transform="matrix(1 0 0 1 540 540)" id="20567aa3-b33f-4fde-92de-813893fe51d2"  >
<rect style="stroke: none; stroke-width: 1; stroke-dasharray: none; stroke-linecap: butt; stroke-dashoffset: 0; stroke-linejoin: miter; stroke-miterlimit: 4; fill: rgb(255,255,255); fill-rule: nonzero; opacity: 1;" vector-effect="non-scaling-stroke"  x="-540" y="-540" rx="0" ry="0" width="1080" height="1080" />
</g>
<g transform="matrix(1 0 0 1 540 540)" id="8818a81b-b232-4582-b472-af18aa71d329"  >
</g>
<g transform="matrix(4.41 0 0 4.41 540 540)"  >
<g style="" vector-effect="non-scaling-stroke"   >
		<g transform="matrix(1 0 0 1 0 0)" id="Rectangle"  >
<rect style="stroke: none; stroke-width: 1; stroke-dasharray: none; stroke-linecap: butt; stroke-dashoffset: 0; stroke-linejoin: miter; stroke-miterlimit: 4; fill: none; fill-rule: evenodd; opacity: 1;" vector-effect="non-scaling-stroke"  x="-48.5" y="-15.6" rx="0" ry="0" width="97" height="31.2" />
</g>
		<g transform="matrix(1 0 0 1 -43.86 -13.74)" id="Path"  >
<polygon style="stroke: none; stroke-width: 1; stroke-dasharray: none; stroke-linecap: butt; stroke-dashoffset: 0; stroke-linejoin: miter; stroke-miterlimit: 4; fill: rgb(0,0,0); fill-rule: evenodd; opacity: 1;" vector-effect="non-scaling-stroke"  points="1.13,-1.81 1.13,-1.31 0.28,-1.31 0.28,1.81 -0.28,1.81 -0.28,-1.31 -1.13,-1.31 -1.13,-1.81 " />
</g>
		<g transform="matrix(1 0 0 1 -35.66 -13.74)" id="Path"  >
<polygon style="stroke: none; stroke-width: 1; stroke-dasharray: none; stroke-linecap: butt; stroke-dashoffset: 0; stroke-linejoin: miter; stroke-miterlimit: 4; fill: rgb(0,0,0); fill-rule: evenodd; opacity: 1;" vector-effect="non-scaling-stroke"  points="-0.53,-1.81 -0.53,-0.35 0.53,-0.35 0.53,-1.81 1.08,-1.81 1.08,1.76 0.53,1.76 0.53,0.15 -0.53,0.15 -0.53,1.81 -1.08,1.81 -1.08,-1.81 " />
</g>
		<g transform="matrix(1 0 0 1 -27.36 -13.71)" id="Path"  >
<polygon style="stroke: none; stroke-width: 1; stroke-dasharray: none; stroke-linecap: butt; stroke-dashoffset: 0; stroke-linejoin: miter; stroke-miterlimit: 4; fill: rgb(0,0,0); fill-rule: evenodd; opacity: 1;" vector-effect="non-scaling-stroke"  points="0.93,-1.84 0.93,-1.33 -0.43,-1.33 -0.43,-0.33 0.88,-0.33 0.88,0.18 -0.43,0.18 -0.43,1.33 0.98,1.33 0.98,1.84 -0.98,1.84 -0.98,-1.84 " />
</g>
		<g transform="matrix(1 0 0 1 -11.38 -13.74)" id="Shape"  >
<path style="stroke: none; stroke-width: 1; stroke-dasharray: none; stroke-linecap: butt; stroke-dashoffset: 0; stroke-linejoin: miter; stroke-miterlimit: 4; fill: rgb(0,0,0); fill-rule: nonzero; opacity: 1;" vector-effect="non-scaling-stroke"  transform=" translate(-37.12, -1.86)" d="M 38.3264516 1.86193548 C 38.3264516 3.17032258 37.9741935 3.72387097 37.1187097 3.72387097 C 36.2632258 3.72387097 35.9109677 3.17032258 35.9109677 1.86193548 C 35.9109677 0.553548387 36.2632258 0 37.1187097 0 C 37.9741935 0 38.3264516 0.553548387 38.3264516 1.86193548 Z M 37.1187097 3.32129032 C 37.4709677 3.32129032 37.7225806 3.01935484 37.7225806 1.86193548 C 37.7225806 0.704516129 37.4709677 0.452903226 37.1187097 0.452903226 C 36.716129 0.452903226 36.5148387 0.75483871 36.5148387 1.86193548 C 36.5148387 2.96903226 36.716129 3.32129032 37.1187097 3.32129032 Z" stroke-linecap="round" />
</g>
		<g transform="matrix(1 0 0 1 -3.08 -13.74)" id="Path"  >
<polygon style="stroke: none; stroke-width: 1; stroke-dasharray: none; stroke-linecap: butt; stroke-dashoffset: 0; stroke-linejoin: miter; stroke-miterlimit: 4; fill: rgb(0,0,0); fill-rule: evenodd; opacity: 1;" vector-effect="non-scaling-stroke"  points="0.96,-1.81 0.96,-1.31 -0.4,-1.31 -0.4,-0.3 0.86,-0.3 0.86,0.2 -0.4,0.2 -0.4,1.81 -0.96,1.81 -0.96,-1.81 " />
</g>
		<g transform="matrix(1 0 0 1 4.87 -13.74)" id="Path"  >
<polygon style="stroke: none; stroke-width: 1; stroke-dasharray: none; stroke-linecap: butt; stroke-dashoffset: 0; stroke-linejoin: miter; stroke-miterlimit: 4; fill: rgb(0,0,0); fill-rule: evenodd; opacity: 1;" vector-effect="non-scaling-stroke"  points="0.96,-1.81 0.96,-1.31 -0.4,-1.31 -0.4,-0.3 0.86,-0.3 0.86,0.2 -0.4,0.2 -0.4,1.81 -0.96,1.81 -0.96,-1.81 " />
</g>
		<g transform="matrix(1 0 0 1 12.14 -13.76)" id="Path"  >
<polygon style="stroke: none; stroke-width: 1; stroke-dasharray: none; stroke-linecap: butt; stroke-dashoffset: 0; stroke-linejoin: miter; stroke-miterlimit: 4; fill: rgb(0,0,0); fill-rule: evenodd; opacity: 1;" vector-effect="non-scaling-stroke"  points="0.28,-1.79 0.28,1.79 -0.28,1.79 -0.28,-1.79 " />
</g>
		<g transform="matrix(1 0 0 1 19.52 -13.74)" id="Path"  >
<path style="stroke: none; stroke-width: 1; stroke-dasharray: none; stroke-linecap: butt; stroke-dashoffset: 0; stroke-linejoin: miter; stroke-miterlimit: 4; fill: rgb(0,0,0); fill-rule: evenodd; opacity: 1;" vector-effect="non-scaling-stroke"  transform=" translate(-68.02, -1.86)" d="M 69.123871 1.10709677 L 69.123871 1.20774194 L 68.570323 1.20774194 L 68.570323 1.15741935 C 68.570323 0.654193548 68.419355 0.452903226 68.067097 0.452903226 C 67.614194 0.452903226 67.463226 0.75483871 67.463226 1.86193548 C 67.463226 3.01935484 67.664516 3.32129032 68.067097 3.32129032 C 68.419355 3.32129032 68.620645 3.01935484 68.620645 2.46580645 L 68.620645 2.36516129 L 69.174194 2.36516129 L 69.174194 2.41548387 C 69.174194 3.27096774 68.771613 3.72387097 68.067097 3.72387097 C 67.211613 3.72387097 66.859355 3.22064516 66.859355 1.86193548 C 66.859355 0.503225806 67.16129 0 68.067097 0 C 68.821935 0 69.123871 0.452903226 69.123871 1.10709677 Z" stroke-linecap="round" />
</g>
		<g transform="matrix(1 0 0 1 26.94 -13.76)" id="Path"  >
<polygon style="stroke: none; stroke-width: 1; stroke-dasharray: none; stroke-linecap: butt; stroke-dashoffset: 0; stroke-linejoin: miter; stroke-miterlimit: 4; fill: rgb(0,0,0); fill-rule: evenodd; opacity: 1;" vector-effect="non-scaling-stroke"  points="0.28,-1.79 0.28,1.79 -0.28,1.79 -0.28,-1.79 " />
</g>
		<g transform="matrix(1 0 0 1 34.41 -13.76)" id="Shape"  >
<path style="stroke: none; stroke-width: 1; stroke-dasharray: none; stroke-linecap: butt; stroke-dashoffset: 0; stroke-linejoin: miter; stroke-miterlimit: 4; fill: rgb(0,0,0); fill-rule: nonzero; opacity: 1;" vector-effect="non-scaling-stroke"  transform=" translate(-82.91, -1.84)" d="M 83.314839 0.0503225806 L 84.270968 3.62322581 L 83.667097 3.62322581 L 83.465806 2.76774194 L 82.409032 2.76774194 L 82.157419 3.62322581 L 81.553548 3.62322581 L 82.56 0.0503225806 L 83.314839 0.0503225806 Z M 82.509677 2.31483871 L 83.365161 2.31483871 L 82.962581 0.553548387 L 82.509677 2.31483871 Z" stroke-linecap="round" />
</g>
		<g transform="matrix(1 0 0 1 42.59 -13.74)" id="Path"  >
<polygon style="stroke: none; stroke-width: 1; stroke-dasharray: none; stroke-linecap: butt; stroke-dashoffset: 0; stroke-linejoin: miter; stroke-miterlimit: 4; fill: rgb(0,0,0); fill-rule: evenodd; opacity: 1;" vector-effect="non-scaling-stroke"  points="-0.43,-1.81 -0.43,1.31 0.98,1.31 0.98,1.81 -0.98,1.81 -0.98,-1.81 " />
</g>
		<g transform="matrix(1 0 0 1 -44.14 13.41)" id="Path"  >
<polygon style="stroke: none; stroke-width: 1; stroke-dasharray: none; stroke-linecap: butt; stroke-dashoffset: 0; stroke-linejoin: miter; stroke-miterlimit: 4; fill: rgb(0,0,0); fill-rule: evenodd; opacity: 1;" vector-effect="non-scaling-stroke"  points="-0.55,-1.79 0,0.88 0,0.88 0.55,-1.79 1.36,-1.79 1.36,1.79 0.86,1.79 0.86,-1.18 0.86,-1.18 0.2,1.79 -0.2,1.79 -0.86,-1.18 -0.86,-1.18 -0.86,1.79 -1.36,1.79 -1.36,-1.79 " />
</g>
		<g transform="matrix(1 0 0 1 -30.96 13.41)" id="Shape"  >
<path style="stroke: none; stroke-width: 1; stroke-dasharray: none; stroke-linecap: butt; stroke-dashoffset: 0; stroke-linejoin: miter; stroke-miterlimit: 4; fill: rgb(0,0,0); fill-rule: nonzero; opacity: 1;" vector-effect="non-scaling-stroke"  transform=" translate(-17.54, -29.01)" d="M 17.9458065 27.2245161 L 18.9019355 30.7974194 L 18.2980645 30.7974194 L 18.0967742 29.9419355 L 17.04 29.9419355 L 16.7883871 30.7974194 L 16.1845161 30.7974194 L 17.1909677 27.2245161 L 17.9458065 27.2245161 Z M 17.0903226 29.4890323 L 17.9458065 29.4890323 L 17.5432258 27.7277419 L 17.0903226 29.4890323 Z" stroke-linecap="round" />
</g>
		<g transform="matrix(1 0 0 1 -18.05 13.53)" id="Path"  >
<path style="stroke: none; stroke-width: 1; stroke-dasharray: none; stroke-linecap: butt; stroke-dashoffset: 0; stroke-linejoin: miter; stroke-miterlimit: 4; fill: rgb(0,0,0); fill-rule: evenodd; opacity: 1;" vector-effect="non-scaling-stroke"  transform=" translate(-30.45, -29.13)" d="M 31.5329032 28.2309677 L 30.9793548 28.2812903 L 30.9793548 28.2309677 C 30.9793548 28.08 30.9793548 27.6270968 30.476129 27.6270968 C 30.0232258 27.6270968 29.8722581 27.9793548 29.8722581 29.036129 C 29.8722581 30.1935484 30.0735484 30.4954839 30.4258065 30.4954839 C 30.8787097 30.4954839 31.0296774 30.1935484 31.0296774 29.4387097 L 30.4258065 29.4387097 L 30.4258065 28.9858065 L 31.5832258 28.9858065 L 31.5832258 30.8980645 L 31.1806452 30.8980645 L 31.1806452 30.4954839 C 31.0296774 30.8477419 30.7780645 30.9987097 30.3754839 30.9987097 C 29.6206452 30.9987097 29.3187097 30.4954839 29.3187097 29.1367742 C 29.3187097 27.8283871 29.6709677 27.2748387 30.5264516 27.2748387 C 31.2812903 27.1741935 31.5329032 27.7277419 31.5329032 28.2309677 Z" stroke-linecap="round" />
</g>
		<g transform="matrix(1 0 0 1 -5.09 13.41)" id="Shape"  >
<path style="stroke: none; stroke-width: 1; stroke-dasharray: none; stroke-linecap: butt; stroke-dashoffset: 0; stroke-linejoin: miter; stroke-miterlimit: 4; fill: rgb(0,0,0); fill-rule: nonzero; opacity: 1;" vector-effect="non-scaling-stroke"  transform=" translate(-43.41, -29.01)" d="M 43.8116129 27.2245161 L 44.7677419 30.7974194 L 44.163871 30.7974194 L 43.9625806 29.9419355 L 42.9058065 29.9419355 L 42.6541935 30.7974194 L 42.0503226 30.7974194 L 43.0567742 27.2245161 L 43.8116129 27.2245161 Z M 42.956129 29.4890323 L 43.8116129 29.4890323 L 43.4090323 27.7277419 L 42.956129 29.4890323 Z" stroke-linecap="round" />
</g>
		<g transform="matrix(1 0 0 1 7.72 13.44)" id="Path"  >
<polygon style="stroke: none; stroke-width: 1; stroke-dasharray: none; stroke-linecap: butt; stroke-dashoffset: 0; stroke-linejoin: miter; stroke-miterlimit: 4; fill: rgb(0,0,0); fill-rule: evenodd; opacity: 1;" vector-effect="non-scaling-stroke"  points="1.08,-1.81 1.08,-1.31 -0.43,1.31 1.08,1.31 1.08,1.81 -1.08,1.81 -1.08,1.36 0.43,-1.31 -0.98,-1.31 -0.98,-1.81 " />
</g>
		<g transform="matrix(1 0 0 1 19.54 13.41)" id="Path"  >
<polygon style="stroke: none; stroke-width: 1; stroke-dasharray: none; stroke-linecap: butt; stroke-dashoffset: 0; stroke-linejoin: miter; stroke-miterlimit: 4; fill: rgb(0,0,0); fill-rule: evenodd; opacity: 1;" vector-effect="non-scaling-stroke"  points="0.28,-1.79 0.28,1.79 -0.28,1.79 -0.28,-1.79 " />
</g>
		<g transform="matrix(1 0 0 1 31.44 13.41)" id="Path"  >
<polygon style="stroke: none; stroke-width: 1; stroke-dasharray: none; stroke-linecap: butt; stroke-dashoffset: 0; stroke-linejoin: miter; stroke-miterlimit: 4; fill: rgb(0,0,0); fill-rule: evenodd; opacity: 1;" vector-effect="non-scaling-stroke"  points="-0.45,-1.79 0.6,0.88 0.6,0.88 0.6,-1.79 1.16,-1.79 1.16,1.79 0.45,1.79 -0.6,-0.98 -0.6,-0.98 -0.6,1.79 -1.16,1.79 -1.16,-1.79 " />
</g>
		<g transform="matrix(1 0 0 1 44 13.46)" id="Path"  >
<polygon style="stroke: none; stroke-width: 1; stroke-dasharray: none; stroke-linecap: butt; stroke-dashoffset: 0; stroke-linejoin: miter; stroke-miterlimit: 4; fill: rgb(0,0,0); fill-rule: evenodd; opacity: 1;" vector-effect="non-scaling-stroke"  points="0.93,-1.84 0.93,-1.33 -0.43,-1.33 -0.43,-0.33 0.88,-0.33 0.88,0.18 -0.43,0.18 -0.43,1.33 0.98,1.33 0.98,1.84 -0.98,1.84 -0.98,-1.74 0.93,-1.74 " />
</g>
		<g transform="matrix(1 0 0 1 42.21 1.99)" id="Path"  >
<polygon style="stroke: none; stroke-width: 1; stroke-dasharray: none; stroke-linecap: butt; stroke-dashoffset: 0; stroke-linejoin: miter; stroke-miterlimit: 4; fill: rgb(0,0,0); fill-rule: evenodd; opacity: 1;" vector-effect="non-scaling-stroke"  points="1.61,4.1 1.61,1.74 1.61,-5.86 -2.77,-5.86 -2.77,-4.2 -1.56,-4.2 -1.56,1.74 -1.56,4.1 -2.77,4.1 -2.77,5.86 2.77,5.86 2.77,4.1 " />
</g>
		<g transform="matrix(1 0 0 1 15.74 1.94)"  >
<path style="stroke: none; stroke-width: 1; stroke-dasharray: none; stroke-linecap: butt; stroke-dashoffset: 0; stroke-linejoin: miter; stroke-miterlimit: 4; fill: rgb(0,0,0); fill-rule: nonzero; opacity: 1;" vector-effect="non-scaling-stroke"  transform=" translate(-47.66, -5.96)" d="M 51.6812903 10.1651613 L 51.6812903 8.95741935 L 51.6812903 7.74967742 L 51.6812903 2.41548387 C 51.6812903 0.402580645 50.5741935 0 47.403871 0 C 43.9819355 0 42.7741935 0.452903226 42.7741935 2.81806452 L 42.7741935 3.82451613 L 45.6425806 3.82451613 L 45.6425806 2.91870968 C 45.6425806 1.71096774 45.7432258 1.56 47.2529032 1.56 C 48.5109677 1.56 48.5612903 1.71096774 48.5612903 2.91870968 L 48.5612903 5.28387097 L 46.8503226 5.28387097 L 45.5419355 5.28387097 C 43.2774194 5.28387097 42.5225806 6.29032258 42.4219355 7.74967742 C 42.4219355 7.8 42.4219355 7.8 42.4219355 7.85032258 L 42.4219355 9.41032258 C 42.4219355 10.8193548 43.4787097 11.9264516 45.1393548 11.9264516 L 52.8890323 11.9264516 L 52.8890323 10.1651613 L 51.6812903 10.1651613 Z M 48.5612903 7.74967742 L 48.5612903 7.95096774 L 48.5612903 9.15870968 C 48.5612903 10.0645161 48.0580645 10.2658065 47.4541935 10.2658065 L 46.3470968 10.2658065 C 45.6425806 10.2658065 45.3909677 9.76258065 45.3909677 9.15870968 L 45.3909677 7.95096774 L 45.3909677 7.69935484 L 45.3909677 7.64903226 C 45.3909677 7.04516129 45.7432258 6.54193548 46.3470968 6.54193548 L 47.5045161 6.54193548 L 48.5109677 6.54193548 L 48.5109677 7.74967742 L 48.5612903 7.74967742 Z" stroke-linecap="round" />
</g>
		<g transform="matrix(1 0 0 1 -26.98 2.04)"  >
<path style="stroke: none; stroke-width: 1; stroke-dasharray: none; stroke-linecap: butt; stroke-dashoffset: 0; stroke-linejoin: miter; stroke-miterlimit: 4; fill: rgb(0,0,0); fill-rule: nonzero; opacity: 1;" vector-effect="non-scaling-stroke"  transform=" translate(-4.93, -6.06)" d="M 5.13290323 0 L 4.68 0 C 1.15741935 0 0.201290323 0.80516129 0.201290323 2.8683871 L 0.201290323 7.74967742 L 0.201290323 9.46064516 C 0.201290323 11.6748387 1.50967742 12.0774194 4.73032258 12.1277419 L 5.08258065 12.1277419 C 8.60516129 12.0270968 9.66193548 11.8258065 9.66193548 9.71225806 L 9.66193548 8.0516129 L 6.64258065 8.0516129 L 6.64258065 8.90709677 C 6.64258065 10.1148387 6.44129032 10.1651613 4.98193548 10.1651613 C 3.27096774 10.1651613 3.3716129 10.0141935 3.3716129 8.90709677 L 3.3716129 7.69935484 L 3.3716129 6.79354839 L 9.66193548 6.79354839 L 9.66193548 2.26451613 C 9.6116129 0.704516129 8.40387097 0 5.13290323 0 Z M 6.44129032 5.63612903 L 3.3716129 5.63612903 L 3.3716129 2.51612903 C 3.3716129 1.91225806 3.57290323 1.61032258 4.27741935 1.61032258 L 5.58580645 1.61032258 C 6.13935484 1.61032258 6.44129032 1.86193548 6.44129032 2.31483871 L 6.44129032 5.63612903 Z" stroke-linecap="round" />
</g>
		<g transform="matrix(1 0 0 1 42.24 -7.32)" id="Path"  >
<polyline style="stroke: none; stroke-width: 1; stroke-dasharray: none; stroke-linecap: butt; stroke-dashoffset: 0; stroke-linejoin: miter; stroke-miterlimit: 4; fill: rgb(0,0,0); fill-rule: evenodd; opacity: 1;" vector-effect="non-scaling-stroke"  points="-1.59,-1.08 -1.59,1.08 1.59,1.08 1.59,-1.08 " />
</g>
		<g transform="matrix(1 0 0 1 1.28 1.89)" id="Path"  >
<path style="stroke: none; stroke-width: 1; stroke-dasharray: none; stroke-linecap: butt; stroke-dashoffset: 0; stroke-linejoin: miter; stroke-miterlimit: 4; fill: rgb(0,0,0); fill-rule: evenodd; opacity: 1;" vector-effect="non-scaling-stroke"  transform=" translate(-46.78, -10.44)" d="M 49.6180645 4.47870968 C 48.0077419 4.47870968 46.9006452 6.4916129 46.196129 7.39741935 L 46.196129 4.68 L 41.8683871 4.68 L 41.8683871 6.29032258 L 43.0258065 6.29032258 L 43.0258065 12.2283871 L 43.0258065 14.643871 L 41.8683871 14.643871 L 41.8683871 16.4051613 L 47.3032258 16.4051613 L 47.3032258 14.643871 L 46.196129 14.643871 L 46.196129 12.2283871 L 46.196129 10.1651613 C 46.196129 9.76258065 48.7122581 6.54193548 48.7122581 6.89419355 L 48.7122581 11.3225806 L 51.6812903 11.3225806 L 51.6812903 6.34064516 C 51.7316129 5.23354839 50.9767742 4.47870968 49.6180645 4.47870968" stroke-linecap="round" />
</g>
		<g transform="matrix(1 0 0 1 -3.71 -0.28)" id="Path"  >
<polyline style="stroke: none; stroke-width: 1; stroke-dasharray: none; stroke-linecap: butt; stroke-dashoffset: 0; stroke-linejoin: miter; stroke-miterlimit: 4; fill: rgb(0,0,0); fill-rule: evenodd; opacity: 1;" vector-effect="non-scaling-stroke"  points="-41.29,-8.13 -41.29,-5.96 -39.53,-5.96 -39.53,4 -39.53,6.42 -41.79,6.42 -41.79,8.13 -33.24,8.13 -33.24,6.42 -36.16,6.42 -36.16,4 -36.16,0.88 -34.5,0.88 -34.5,2.44 -32.53,2.44 -32.53,-2.49 -34.5,-2.49 -34.5,-1.03 -36.16,-1.03 -36.16,-5.96 41.79,-5.96 41.79,-8.13 " />
</g>
		<g transform="matrix(1 0 0 1 -12.84 1.89)"  >
<path style="stroke: none; stroke-width: 1; stroke-dasharray: none; stroke-linecap: butt; stroke-dashoffset: 0; stroke-linejoin: miter; stroke-miterlimit: 4; fill: rgb(0,0,0); fill-rule: evenodd; opacity: 1;" vector-effect="non-scaling-stroke"  transform=" translate(-4.99, -6.42)" d="M 7.85032258 0.452903226 C 6.24 0.452903226 5.13290323 2.46580645 4.4283871 3.3716129 L 4.4283871 0.654193548 L 0.100645161 0.654193548 L 0.100645161 2.26451613 L 1.25806452 2.26451613 L 1.25806452 8.20258065 L 1.25806452 10.6180645 L 0.100645161 10.6180645 L 0.100645161 12.3793548 L 5.48516129 12.3793548 L 5.48516129 10.6180645 L 4.37806452 10.6180645 L 4.37806452 8.20258065 L 4.37806452 6.13935484 C 4.37806452 5.73677419 6.89419355 2.51612903 6.89419355 2.8683871 L 6.89419355 7.29677419 L 9.86322581 7.29677419 L 9.86322581 2.31483871 C 9.96387097 1.20774194 9.20903226 0.452903226 7.85032258 0.452903226" stroke-linecap="round" />
</g>
		<g transform="matrix(1 0 0 1 30.08 1.89)"  >
<path style="stroke: none; stroke-width: 1; stroke-dasharray: none; stroke-linecap: butt; stroke-dashoffset: 0; stroke-linejoin: miter; stroke-miterlimit: 4; fill: rgb(0,0,0); fill-rule: evenodd; opacity: 1;" vector-effect="non-scaling-stroke"  transform=" translate(-47.91, -6.42)" d="M 50.7251613 0.452903226 C 49.1148387 0.452903226 48.0077419 2.46580645 47.3032258 3.3716129 L 47.3032258 0.654193548 L 42.9754839 0.654193548 L 42.9754839 2.26451613 L 44.1329032 2.26451613 L 44.1329032 8.20258065 L 44.1329032 10.6180645 L 42.9754839 10.6180645 L 42.9754839 12.3793548 L 48.36 12.3793548 L 48.36 10.6180645 L 47.3032258 10.6180645 L 47.3032258 8.20258065 L 47.3032258 6.13935484 C 47.3032258 5.73677419 49.8193548 2.51612903 49.8193548 2.8683871 L 49.8193548 7.29677419 L 52.8387097 7.29677419 L 52.8387097 2.31483871 C 52.8387097 1.20774194 52.083871 0.452903226 50.7251613 0.452903226" stroke-linecap="round" />
</g>
</g>
</g>
<g transform="matrix(1 0 0 1 540.92 605.19)"  >
<path style="stroke: rgb(255,255,255); stroke-width: 30; stroke-dasharray: none; stroke-linecap: round; stroke-dashoffset: 0; stroke-linejoin: round; stroke-miterlimit: 10; fill: none; fill-rule: nonzero; opacity: 1;" vector-effect="non-scaling-stroke"  transform=" translate(-540.92, -605.19)" d="M 337.4124552429656 611.6317023157758 Q 337.4424552429656 611.6317023157758 338.36317135549757 611.6317023157758 Q 339.28388746802955 611.6317023157758 347.5703324808172 611.6317023157758 Q 355.85677749360497 611.6317023157758 375.1918158567763 611.6317023157758 Q 394.5268542199477 611.6317023157758 401.8925831202034 611.6317023157758 Q 409.2583120204592 611.6317023157758 408.33759590792727 611.6317023157758 Q 407.4168797953953 611.6317023157758 396.3682864450117 609.7902700907118 Q 385.319693094628 607.9488378656479 370.5882352941165 603.345257302988 Q 355.85677749360497 598.7416767403281 349.4117647058812 598.7416767403281 Q 342.9667519181574 598.7416767403281 342.0460358056255 598.7416767403281 Q 341.1253196930935 598.7416767403281 342.96675191815746 599.6623928528601 Q 344.80818414322135 600.5831089653921 356.77749360613694 602.424541190456 Q 368.74680306905253 604.26597341552 373.35038363171236 604.26597341552 Q 377.95396419437225 604.26597341552 381.63682864450016 604.26597341552 Q 385.319693094628 604.26597341552 391.7647058823518 605.1866895280519 Q 398.2097186700756 606.1074056405839 401.8925831202034 607.0281217531159 Q 405.57544757033133 607.9488378656479 406.4961636828633 607.9488378656479 Q 407.4168797953953 607.9488378656479 410.1790281329912 607.9488378656479 Q 412.9411764705871 607.9488378656479 410.1790281329912 607.0281217531159 Q 407.4168797953953 606.1074056405839 406.4961636828633 606.1074056405839 Q 405.57544757033133 606.1074056405839 411.09974424552314 606.1074056405839 Q 416.62404092071495 606.1074056405839 430.4347826086945 606.1074056405839 Q 444.24552429667403 606.1074056405839 452.5319693094618 606.1074056405839 Q 460.8184143222495 606.1074056405839 470.94629156010114 606.1074056405839 Q 481.0741687979528 606.1074056405839 488.43989769820854 606.1074056405839 Q 495.8056265984643 606.1074056405839 497.64705882352825 606.1074056405839 Q 499.4884910485922 606.1074056405839 500.4092071611242 606.1074056405839 Q 501.32992327365616 606.1074056405839 511.4578005115078 607.0281217531159 Q 521.5856777493594 607.9488378656479 528.0306905370833 607.9488378656479 Q 534.475703324807 607.9488378656479 545.5242966751907 607.9488378656479 Q 556.5728900255743 607.9488378656479 553.8107416879784 607.9488378656479 Q 551.0485933503825 607.9488378656479 540.9207161125308 607.9488378656479 Q 530.7928388746792 607.9488378656479 527.1099744245513 607.9488378656479 Q 523.4271099744234 607.9488378656479 516.9820971866995 606.1074056405839 Q 510.5370843989758 604.26597341552 509.61636828644384 604.26597341552 Q 508.6956521739119 604.26597341552 524.3478260869554 604.26597341552 Q 539.9999999999989 604.26597341552 548.2864450127865 604.26597341552 Q 556.5728900255743 604.26597341552 565.780051150894 604.26597341552 Q 574.9872122762138 604.26597341552 579.5907928388735 604.26597341552 Q 584.1943734015333 604.26597341552 592.4808184143211 604.26597341552 Q 600.7672634271089 604.26597341552 609.0537084398966 604.26597341552 Q 617.3401534526843 604.26597341552 621.0230179028122 604.26597341552 Q 624.7058823529401 604.26597341552 634.8337595907917 603.345257302988 Q 644.9616368286433 602.424541190456 656.010230179027 602.424541190456 Q 667.0588235294106 602.424541190456 676.2659846547303 601.503825077924 Q 685.47314578005 600.5831089653921 694.6803069053697 600.5831089653921 Q 703.8874680306894 600.5831089653921 712.1739130434771 600.5831089653921 Q 720.4603580562649 600.5831089653921 725.9846547314567 600.5831089653921 Q 731.5089514066485 600.5831089653921 737.9539641943722 602.424541190456 L 744.428976982096 604.2959734155199" stroke-linecap="round" />
</g>
<g transform="matrix(1 0 0 1 540 614.16)" style="" id="94ee43ca-d0e3-4634-9f94-d79766abb5c4"  >
		<text xml:space="preserve" font-family="Poppins" font-size="40" font-style="normal" font-weight="400" style="stroke: none; stroke-width: 1; stroke-dasharray: none; stroke-linecap: butt; stroke-dashoffset: 0; stroke-linejoin: miter; stroke-miterlimit: 4; fill: rgb(0,0,0); fill-rule: nonzero; opacity: 1; white-space: pre;" ><tspan x="-145.32" y="12.57" >EVENT PARTNER</tspan></text>
</g>
</svg>